<?xml version="1.0" encoding="UTF-8" standalone="no"?>
<svg
   xmlns:dc="http://purl.org/dc/elements/1.1/"
   xmlns:cc="http://creativecommons.org/ns#"
   xmlns:rdf="http://www.w3.org/1999/02/22-rdf-syntax-ns#"
   xmlns:svg="http://www.w3.org/2000/svg"
   xmlns="http://www.w3.org/2000/svg"
   xmlns:sodipodi="http://sodipodi.sourceforge.net/DTD/sodipodi-0.dtd"
   xmlns:inkscape="http://www.inkscape.org/namespaces/inkscape"
   width="74.041428mm"
   height="8.5618896mm"
   viewBox="0 0 74.041428 8.5618896"
   version="1.1"
   id="svg860"
   inkscape:version="1.0.1 (c497b03c, 2020-09-10)"
   sodipodi:docname="logo.svg">
  <defs
     id="defs854" />
  <sodipodi:namedview
     id="base"
     pagecolor="#ffffff"
     bordercolor="#666666"
     borderopacity="1.0"
     inkscape:pageopacity="0.0"
     inkscape:pageshadow="2"
     inkscape:zoom="0.35"
     inkscape:cx="213.14286"
     inkscape:cy="166.12562"
     inkscape:document-units="mm"
     inkscape:current-layer="layer1"
     inkscape:document-rotation="0"
     showgrid="false"
     fit-margin-top="0"
     fit-margin-left="0"
     fit-margin-right="0"
     fit-margin-bottom="0"
     inkscape:window-width="1440"
     inkscape:window-height="900"
     inkscape:window-x="0"
     inkscape:window-y="0"
     inkscape:window-maximized="0" />
  <metadata
     id="metadata857">
    <rdf:RDF>
      <cc:Work
         rdf:about="">
        <dc:format>image/svg+xml</dc:format>
        <dc:type
           rdf:resource="http://purl.org/dc/dcmitype/StillImage" />
        <dc:title></dc:title>
      </cc:Work>
    </rdf:RDF>
  </metadata>
  <g
     inkscape:label="レイヤー 1"
     inkscape:groupmode="layer"
     id="layer1"
     transform="translate(-49.439285,-104.2126)">
    <g
       aria-label="Random Words"
       id="text1425"
       style="font-size:10.58329999999999949px;line-height:1.25;font-family:'Noto Sans JP';-inkscape-font-specification:'Noto Sans JP';stroke-width:0.264583;fill:#41584b;fill-opacity:1">
      <path
         d="m 49.439285,112.6369 h 0.984247 v -3.2914 h 1.396995 l 1.883827,3.2914 h 1.111247 l -1.98966,-3.39724 c 1.05833,-0.254 1.756827,-0.97366 1.756827,-2.18016 0,-1.61924 -1.132413,-2.19074 -2.709324,-2.19074 h -2.434159 z m 0.984247,-4.08515 v -2.87866 h 1.301745 c 1.21708,0 1.883828,0.35983 1.883828,1.38641 0,1.00542 -0.666748,1.49225 -1.883828,1.49225 z"
         style="stroke-width:0.264583;fill:#41584b;fill-opacity:1"
         id="path1427" />
      <path
         d="m 57.374775,112.77448 c 0.709081,0 1.354662,-0.37041 1.904994,-0.82549 h 0.03175 l 0.08467,0.68791 h 0.793748 v -3.53482 c 0,-1.41816 -0.592665,-2.36008 -1.989661,-2.36008 -0.920747,0 -1.735661,0.41275 -2.264826,0.75142 l 0.380999,0.66675 c 0.455082,-0.30692 1.05833,-0.61384 1.725078,-0.61384 0.941913,0 1.185329,0.70909 1.185329,1.44992 -2.444742,0.27516 -3.534822,0.89958 -3.534822,2.14841 0,1.03716 0.719665,1.62982 1.682745,1.62982 z m 0.275166,-0.77258 c -0.571498,0 -1.015997,-0.26458 -1.015997,-0.92074 0,-0.74083 0.656165,-1.21708 2.592908,-1.44992 v 1.60867 c -0.560915,0.49741 -1.015996,0.76199 -1.576911,0.76199 z"
         style="stroke-width:0.264583;fill:#41584b;fill-opacity:1"
         id="path1429" />
      <path
         d="m 62.025639,112.6369 h 0.96308 v -4.16982 c 0.582082,-0.58208 0.984247,-0.87841 1.576912,-0.87841 0.761997,0 1.09008,0.45508 1.09008,1.53458 v 3.51365 h 0.96308 v -3.64065 c 0,-1.47108 -0.550332,-2.25425 -1.756828,-2.25425 -0.783164,0 -1.375829,0.43392 -1.92616,0.97367 h -0.03175 l -0.08467,-0.8255 h -0.793747 z"
         style="stroke-width:0.264583;fill:#41584b;fill-opacity:1"
         id="path1431" />
      <path
         d="m 70.453417,112.77448 c 0.687914,0 1.291163,-0.37041 1.746244,-0.81491 h 0.03175 l 0.08467,0.67733 h 0.783164 v -8.4243 h -0.952497 v 2.2119 l 0.04233,0.99484 C 71.68108,106.996 71.247164,106.742 70.569833,106.742 c -1.312329,0 -2.487075,1.16417 -2.487075,3.02683 0,1.91557 0.93133,3.00565 2.370659,3.00565 z m 0.211666,-0.80433 c -1.015997,0 -1.587495,-0.82549 -1.587495,-2.21191 0,-1.31232 0.730248,-2.20132 1.661578,-2.20132 0.476249,0 0.910164,0.16933 1.407579,0.60325 v 3.01624 c -0.486832,0.52916 -0.952497,0.79374 -1.481662,0.79374 z"
         style="stroke-width:0.264583;fill:#41584b;fill-opacity:1"
         id="path1433" />
      <path
         d="m 77.281134,112.77448 c 1.407579,0 2.666992,-1.10066 2.666992,-3.00565 0,-1.91558 -1.259413,-3.02683 -2.666992,-3.02683 -1.407579,0 -2.666991,1.11125 -2.666991,3.02683 0,1.90499 1.259412,3.00565 2.666991,3.00565 z m 0,-0.80433 c -0.99483,0 -1.661578,-0.87841 -1.661578,-2.20132 0,-1.32291 0.666748,-2.2225 1.661578,-2.2225 0.99483,0 1.672161,0.89959 1.672161,2.2225 0,1.32291 -0.677331,2.20132 -1.672161,2.20132 z"
         style="stroke-width:0.264583;fill:#41584b;fill-opacity:1"
         id="path1435" />
      <path
         d="m 81.455914,112.6369 h 0.96308 v -4.16982 c 0.529165,-0.59266 1.015997,-0.87841 1.449912,-0.87841 0.730248,0 1.068913,0.45508 1.068913,1.53458 v 3.51365 H 85.9009 v -4.16982 c 0.539748,-0.59266 1.005413,-0.87841 1.449912,-0.87841 0.730247,0 1.068913,0.45508 1.068913,1.53458 v 3.51365 h 0.96308 v -3.64065 c 0,-1.47108 -0.560915,-2.25425 -1.746244,-2.25425 -0.698498,0 -1.301746,0.45509 -1.894411,1.10067 -0.232832,-0.67733 -0.709081,-1.10067 -1.587495,-1.10067 -0.687914,0 -1.291162,0.43392 -1.788577,0.98425 h -0.03175 l -0.08467,-0.83608 h -0.793747 z"
         style="stroke-width:0.264583;fill:#41584b;fill-opacity:1"
         id="path1437" />
      <path
         d="m 94.572758,112.6369 h 1.164163 l 1.15358,-4.67782 c 0.126999,-0.61383 0.264582,-1.17474 0.391582,-1.76741 h 0.04233 c 0.127,0.59267 0.243416,1.15358 0.380999,1.76741 l 1.174746,4.67782 h 1.174749 l 1.60866,-7.76814 h -0.94191 l -0.814919,4.23332 c -0.148166,0.8255 -0.296332,1.66158 -0.444499,2.50824 h -0.05292 c -0.179916,-0.84666 -0.359832,-1.68274 -0.550332,-2.50824 l -1.079496,-4.23332 h -0.899581 l -1.068913,4.23332 c -0.190499,0.83608 -0.380999,1.67216 -0.560915,2.50824 h -0.04233 c -0.148166,-0.83608 -0.306916,-1.67216 -0.455082,-2.50824 l -0.814914,-4.23332 h -1.005413 z"
         style="stroke-width:0.264583;fill:#41584b;fill-opacity:1"
         id="path1439" />
      <path
         d="m 105.16565,112.77448 c 1.40758,0 2.66699,-1.10066 2.66699,-3.00565 0,-1.91558 -1.25941,-3.02683 -2.66699,-3.02683 -1.40758,0 -2.66699,1.11125 -2.66699,3.02683 0,1.90499 1.25941,3.00565 2.66699,3.00565 z m 0,-0.80433 c -0.99483,0 -1.66158,-0.87841 -1.66158,-2.20132 0,-1.32291 0.66675,-2.2225 1.66158,-2.2225 0.99483,0 1.67216,0.89959 1.67216,2.2225 0,1.32291 -0.67733,2.20132 -1.67216,2.20132 z"
         style="stroke-width:0.264583;fill:#41584b;fill-opacity:1"
         id="path1441" />
      <path
         d="m 109.34043,112.6369 h 0.96308 v -3.69357 c 0.381,-0.98425 0.97367,-1.32291 1.44991,-1.32291 0.23284,0 0.37042,0.0212 0.56092,0.0953 l 0.17991,-0.84667 c -0.17991,-0.0952 -0.35983,-0.127 -0.61383,-0.127 -0.64558,0 -1.22766,0.46567 -1.62982,1.19592 h -0.0318 l -0.0847,-1.04775 h -0.79375 z"
         style="stroke-width:0.264583;fill:#41584b;fill-opacity:1"
         id="path1443" />
      <path
         d="m 115.28775,112.77448 c 0.68791,0 1.29116,-0.37041 1.74624,-0.81491 h 0.0318 l 0.0847,0.67733 h 0.78316 v -8.4243 h -0.95249 v 2.2119 l 0.0423,0.99484 c -0.508,-0.42334 -0.94191,-0.67734 -1.61925,-0.67734 -1.31232,0 -2.48707,1.16417 -2.48707,3.02683 0,1.91557 0.93133,3.00565 2.37066,3.00565 z m 0.21166,-0.80433 c -1.01599,0 -1.58749,-0.82549 -1.58749,-2.21191 0,-1.31232 0.73025,-2.20132 1.66158,-2.20132 0.47625,0 0.91016,0.16933 1.40758,0.60325 v 3.01624 c -0.48684,0.52916 -0.9525,0.79374 -1.48167,0.79374 z"
         style="stroke-width:0.264583;fill:#41584b;fill-opacity:1"
         id="path1445" />
      <path
         d="m 121.38522,112.77448 c 1.35466,0 2.09549,-0.77258 2.09549,-1.70391 0,-1.09008 -0.92075,-1.42874 -1.75683,-1.74624 -0.64558,-0.24342 -1.23824,-0.4445 -1.23824,-0.99483 0,-0.4445 0.33866,-0.8255 1.06891,-0.8255 0.508,0 0.91016,0.21167 1.30175,0.508 l 0.46566,-0.62441 c -0.4445,-0.34925 -1.06891,-0.64559 -1.77799,-0.64559 -1.24883,0 -1.98966,0.71967 -1.98966,1.62983 0,0.97367 0.87841,1.36525 1.68274,1.66158 0.635,0.24342 1.31233,0.49742 1.31233,1.09008 0,0.49742 -0.37041,0.89958 -1.13241,0.89958 -0.68792,0 -1.2065,-0.27517 -1.70391,-0.67733 l -0.47625,0.635 c 0.55033,0.45508 1.33349,0.79374 2.14841,0.79374 z"
         style="stroke-width:0.264583;fill:#41584b;fill-opacity:1"
         id="path1447" />
    </g>
  </g>
</svg>
